<svg width="1920" height="1080" viewBox="0 0 1920 1080" fill="none" xmlns="http://www.w3.org/2000/svg">
<g clip-path="url(#clip0_2_140)">
<rect width="1920" height="1080" fill="#0F102C"/>
<path d="M1610.52 818.5L1920.02 573V0H1117.02C931.524 148.833 558.524 447.5 550.524 451.5C540.524 456.5 521.524 526.5 560.524 571C591.724 606.6 646.191 602.5 669.524 596C739.5 535 868 422 924.024 411.5C960 404.757 975 407.5 1013.5 436.5C1045.56 460.649 1053 520 1029.02 549.5C932.024 628.833 718.924 800.7 642.524 853.5C547.024 919.5 607.524 1017.5 653.024 1032.5C689.424 1044.5 719.857 1035.5 730.524 1029.5C997.691 816.5 1539.02 389.3 1567.02 384.5C1602.02 378.5 1654.52 382.5 1670.02 435.5C1682.42 477.9 1672.19 510.167 1665.52 521C1608.69 563.5 1490.92 656.3 1474.52 687.5C1458.12 718.7 1464.69 752.5 1470.02 765.5C1478.19 782 1503.32 817.1 1538.52 825.5C1573.72 833.9 1601.19 824.333 1610.52 818.5Z" fill="#1F203C"/>
<rect x="175" y="647" width="188" height="188" rx="94" fill="#212240"/>
<path d="M478.5 118L489.5 148M469 140L498 127.5" stroke="#23233F" stroke-width="8" stroke-linecap="round" stroke-linejoin="round"/>
<path d="M343.5 294L354.5 324M334 316L363 303.5" stroke="#23233F" stroke-width="8" stroke-linecap="round" stroke-linejoin="round"/>
</g>
<defs>
<clipPath id="clip0_2_140">
<rect width="1920" height="1080" fill="white"/>
</clipPath>
</defs>
</svg>
